<svg width="41" height="40" viewBox="0 0 41 40" fill="none" xmlns="http://www.w3.org/2000/svg">
<path d="M21.0387 38.0775C31.5535 38.0775 40.0775 29.5535 40.0775 19.0387C40.0775 8.52393 31.5535 0 21.0387 0C10.5239 0 2 8.52393 2 19.0387C2 29.5535 10.5239 38.0775 21.0387 38.0775Z" fill="#171C2A"/>
<path d="M20.363 39.6641C16.4406 39.6641 12.6063 38.5009 9.34495 36.3218C6.08357 34.1425 3.54167 31.0452 2.04063 27.4213C0.539598 23.7975 0.14686 19.81 0.912081 15.963C1.6773 12.1159 3.56611 8.58223 6.33968 5.80867C9.11324 3.03511 12.6469 1.1463 16.494 0.381075C20.341 -0.384146 24.3285 0.00859185 27.9524 1.50963C31.5762 3.01066 34.6735 5.55257 36.8528 8.81395C39.0319 12.0753 40.1951 15.9096 40.1951 19.832C40.1887 25.0898 38.0974 30.1305 34.3794 33.8484C30.6615 37.5664 25.6208 39.6577 20.363 39.6641ZM20.363 1.58657C16.7544 1.58657 13.2268 2.65664 10.2264 4.66149C7.22594 6.6663 4.88736 9.51586 3.50642 12.8498C2.12547 16.1837 1.76415 19.8522 2.46815 23.3915C3.17216 26.9308 4.90987 30.1818 7.46152 32.7335C10.0132 35.2851 13.2642 37.0227 16.8035 37.7267C20.3428 38.4308 24.0113 38.0694 27.3452 36.6885C30.6791 35.3076 33.5287 32.969 35.5335 29.9686C37.5384 26.9681 38.6085 23.4406 38.6085 19.832C38.6022 14.9949 36.6779 10.3578 33.2575 6.93749C29.8372 3.51716 25.2 1.59286 20.363 1.58657Z" fill="#00D991"/>
<path d="M15.6722 21.3186L15.5573 21.4337C15.4984 21.4926 15.4985 21.5881 15.5574 21.6468L17.2835 23.3705C17.3424 23.4294 17.4378 23.4293 17.4966 23.3704L17.6116 23.2553C17.6704 23.1964 17.6703 23.101 17.6114 23.0421L15.8853 21.3185C15.8264 21.2597 15.731 21.2597 15.6722 21.3186Z" fill="white"/>
<path d="M15.7111 20.4338L15.5962 20.5488C15.5373 20.6077 15.5373 20.7031 15.5962 20.7619L17.0209 22.1867C17.0798 22.2456 17.1752 22.2456 17.2341 22.1867L17.3491 22.0717C17.4079 22.0129 17.4079 21.9174 17.3491 21.8586L15.9243 20.4338C15.8654 20.3749 15.77 20.3749 15.7111 20.4338Z" fill="white"/>
<path d="M25.4219 21.3228L25.307 21.4379C25.2482 21.4968 25.2483 21.5922 25.3072 21.651L27.0332 23.3747C27.0922 23.4335 27.1876 23.4334 27.2464 23.3745L27.3613 23.2595C27.4201 23.2006 27.42 23.1051 27.3611 23.0463L25.6351 21.3226C25.5762 21.2638 25.4808 21.2639 25.4219 21.3228Z" fill="white"/>
<path d="M25.4472 20.4341L25.3321 20.5489C25.2732 20.6078 25.2731 20.7032 25.3319 20.7621L26.7554 22.1881C26.8142 22.247 26.9097 22.2471 26.9686 22.1883L27.0837 22.0734C27.1426 22.0146 27.1427 21.9192 27.0839 21.8603L25.6603 20.4343C25.6015 20.3754 25.5061 20.3752 25.4472 20.4341Z" fill="white"/>
<path fill-rule="evenodd" clip-rule="evenodd" d="M29.4865 22.3896H29.0899C28.9773 21.4505 28.5273 20.5844 27.8235 19.9525C27.1198 19.3206 26.2103 18.966 25.2646 18.9549C24.3188 18.9437 23.4013 19.2767 22.6828 19.8918C21.9644 20.5069 21.494 21.3622 21.3593 22.2984C21.1491 22.346 20.3281 22.3896 20.3281 22.3896C20.3281 22.3896 19.5348 22.35 19.3404 22.3063C19.2067 21.3701 18.7371 20.5144 18.0193 19.8986C17.3015 19.2828 16.3844 18.9489 15.4387 18.9591C14.493 18.9693 13.5832 19.3229 12.8789 19.954C12.1745 20.5851 11.7235 21.4507 11.61 22.3896H11.1657C11.0857 22.3896 11.0091 22.4214 10.9525 22.4779C10.896 22.5344 10.8643 22.6111 10.8643 22.6911V23.0044C10.8653 23.083 10.897 23.1581 10.9525 23.2136C11.0081 23.2692 11.0832 23.3009 11.1617 23.3019H11.5901C11.7016 24.2412 12.1507 25.1079 12.8539 25.7406C13.557 26.3733 14.4661 26.7288 15.4119 26.7409C16.3577 26.7531 17.2756 26.421 17.9947 25.8065C18.7139 25.1921 19.1851 24.3372 19.3206 23.4011C19.5388 23.3574 20.3083 23.3138 20.3083 23.3138C20.3083 23.3138 21.1253 23.3654 21.3395 23.409C21.456 24.3619 21.92 25.2383 22.6426 25.8704C23.3652 26.5024 24.2956 26.8457 25.2556 26.8344C26.2155 26.8231 27.1375 26.458 27.845 25.8092C28.5525 25.1603 28.9958 24.2732 29.0899 23.3178H29.4865C29.5651 23.3178 29.6406 23.2871 29.6969 23.2323C29.7532 23.1775 29.7859 23.1028 29.7879 23.0242V22.695C29.7879 22.6151 29.7562 22.5384 29.6997 22.4819C29.6431 22.4253 29.5665 22.3936 29.4865 22.3936V22.3896ZM15.4613 25.8245C14.8737 25.8245 14.2994 25.6503 13.8108 25.3239C13.3223 24.9974 12.9415 24.5334 12.7166 23.9906C12.4918 23.4477 12.4329 22.8504 12.5476 22.2741C12.6622 21.6978 12.9451 21.1685 13.3606 20.753C13.7761 20.3375 14.3055 20.0546 14.8817 19.94C15.458 19.8253 16.0553 19.8841 16.5982 20.109C17.141 20.3339 17.605 20.7146 17.9315 21.2032C18.2579 21.6917 18.4322 22.2661 18.4322 22.8537C18.4322 23.6416 18.1192 24.3973 17.562 24.9544C17.0049 25.5115 16.2492 25.8245 15.4613 25.8245ZM25.1988 25.8245C24.6112 25.8245 24.0369 25.6503 23.5483 25.3239C23.0598 24.9974 22.679 24.5334 22.4541 23.9906C22.2293 23.4477 22.1705 22.8504 22.2851 22.2741C22.3997 21.6978 22.6826 21.1685 23.0981 20.753C23.5136 20.3375 24.0429 20.0546 24.6192 19.94C25.1955 19.8253 25.7929 19.8841 26.3357 20.109C26.8786 20.3339 27.3425 20.7146 27.669 21.2032C27.9954 21.6917 28.1696 22.2661 28.1696 22.8537C28.1696 23.6416 27.8566 24.3973 27.2995 24.9544C26.7424 25.5115 25.9867 25.8245 25.1988 25.8245Z" fill="white"/>
<path d="M32.8893 21.2678V14.3305H30.4499C30.5926 13.568 30.684 12.7968 30.7236 12.0221L29.2878 13.089C30.0811 12.1728 29.2878 7.901 29.2878 7.901C29.2878 7.901 28.2406 9.95559 21.712 9.43205C15.1833 8.90847 14.267 11.5025 14.267 11.5025C13.4738 10.7092 14.267 9.41219 14.267 9.41219C14.0305 9.5215 13.8178 9.67633 13.6411 9.86787C13.4644 10.0594 13.3272 10.2839 13.2373 10.5285C13.1475 10.7731 13.1067 11.033 13.1173 11.2934C13.1279 11.5537 13.1897 11.8094 13.2992 12.0459L13.3548 12.153H11.2407L12.7003 13.089C12.2404 13.3942 11.8868 13.8351 11.6889 14.3504H7.76216V21.2678L6.33423 22.6957L7.76216 24.1236L8.15879 31.0608H11.8674L11.4707 23.719C11.4747 23.6947 11.4736 23.6699 11.4677 23.646C11.4617 23.6221 11.451 23.5997 11.4362 23.58C11.4214 23.5604 11.4028 23.544 11.3814 23.5317C11.3601 23.5195 11.3365 23.5117 11.3121 23.5088C11.2638 23.5019 11.2147 23.5143 11.1754 23.5432C11.1361 23.5721 11.1097 23.6153 11.1018 23.6635C11.0979 23.6818 11.0979 23.7007 11.1018 23.719V29.3513H9.43993V23.6635L8.46421 22.6957L9.43596 21.7279V16.04H11.2843C11.2407 16.4697 11.2327 16.9022 11.2605 17.3331H12.5654C12.6381 16.5409 13.0165 15.8082 13.6205 15.2904C15.8417 12.5456 25.246 14.1481 25.246 14.1481L26.2892 12.6091L25.8925 14.1481C28.1058 14.6756 28.2962 17.2855 28.2962 17.2855H29.2878C29.5859 16.9112 29.8204 16.4905 29.9819 16.04H31.2115V21.7279L32.1833 22.6957L31.2115 23.6635V29.3513H29.1807L29.5773 31.0608H33.2859L32.8893 24.1236L34.3172 22.6957L32.8893 21.2678Z" fill="white"/>
</svg>
