<svg width="204" height="128" viewBox="0 0 204 128" fill="none" xmlns="http://www.w3.org/2000/svg">
<g clip-path="url(#clip0_21_23)">
<path d="M127.427 3.13206C127.602 3.13206 127.778 2.95478 127.895 2.7184C128.013 2.54111 128.188 2.24564 128.423 2.06835C128.657 1.89107 128.833 1.95016 129.009 2.00926C129.067 2.06835 129.126 2.12745 129.243 2.24564C129.36 2.36383 129.477 2.60021 129.536 2.89568C129.594 3.01387 129.594 3.13206 129.594 3.19116C129.594 3.30935 129.653 3.36844 129.653 3.54573V3.66392V3.72301H129.536C129.419 3.72301 129.301 3.72301 129.184 3.66392C129.009 3.66392 128.833 3.60482 128.657 3.54573C128.364 3.48663 128.188 3.36844 127.954 3.25025C127.778 3.25025 127.602 3.13206 127.427 3.13206C127.251 3.13206 127.134 3.30935 127.075 3.66392C127.017 4.01849 127.251 4.60944 127.778 5.0822C128.013 5.31858 128.364 5.49587 128.716 5.61406C128.891 5.67315 129.009 5.73225 129.184 5.79134L129.301 5.85044L129.477 5.90953C129.594 5.90953 129.77 5.96863 129.946 5.96863C130.532 6.02772 131.176 5.79134 131.586 5.25949C131.762 5.02311 131.879 4.66854 131.938 4.31397C131.938 4.13668 131.938 3.95939 131.938 3.78211V3.54573V3.36844C131.938 3.19116 131.879 2.95478 131.821 2.77749C131.762 2.60021 131.704 2.42292 131.645 2.18654C131.469 1.71378 131.235 1.24102 130.883 0.886449C130.532 0.472783 130.005 0.118212 129.419 0.0591173C128.305 -0.118168 127.368 0.590973 127.075 1.24102C126.782 1.89107 126.841 2.42292 126.899 2.77749C127.017 3.01387 127.251 3.19116 127.427 3.13206Z" fill="#1B1B1B"/>
<path d="M54.0173 46.9216C54.193 46.9216 54.3688 46.7443 54.4859 46.508C54.6031 46.3307 54.7789 46.0352 55.0132 45.8579C55.2476 45.6806 55.4233 45.7397 55.5991 45.7988C55.6577 45.8579 55.7163 45.917 55.8335 46.0352C55.9506 46.1534 56.0678 46.3898 56.1264 46.6852C56.185 46.8034 56.185 46.9216 56.185 46.9807C56.185 47.0989 56.2436 47.158 56.2436 47.3353V47.4535V47.5126C56.2436 47.5126 56.2436 47.5126 56.185 47.5717C56.185 47.5717 56.1264 47.5717 56.0678 47.5717H55.892C55.4819 47.5717 55.189 47.4535 55.0132 47.3944C54.7789 47.3353 54.6031 47.2171 54.4859 47.0989C54.3688 46.9807 54.193 46.8625 54.0173 46.9216C53.8415 46.9216 53.7243 47.0989 53.6657 47.3353C53.6071 47.6308 53.6657 48.1035 54.0173 48.5172C54.3688 48.99 54.9546 49.3445 55.5405 49.5218L55.7163 49.5809C55.7749 49.5809 55.8334 49.64 56.0092 49.64C56.2436 49.6991 56.5365 49.6991 56.7708 49.6991C57.2981 49.6991 57.8254 49.4627 58.1769 48.99C58.3527 48.7536 58.4699 48.399 58.4699 48.0444C58.4699 47.8672 58.4699 47.6899 58.4699 47.5126V47.2762V47.0989C58.4699 46.9216 58.4113 46.6852 58.3527 46.508C58.2941 46.3307 58.2355 46.1534 58.1769 45.917C58.0012 45.4442 57.7668 44.9715 57.4153 44.6169C57.0638 44.2033 56.5365 43.8487 55.9506 43.7896C54.8375 43.6123 53.9001 44.3214 53.6071 44.9715C53.3142 45.6215 53.3728 46.1534 53.4314 46.508C53.6657 46.8034 53.8415 46.9216 54.0173 46.9216Z" fill="#1B1B1B"/>
<path d="M55.892 17.7876C56.0678 17.7876 56.2435 17.6103 56.3607 17.3739C56.4779 17.1966 56.6537 16.9012 56.888 16.7239C57.1223 16.5466 57.2981 16.6057 57.4739 16.6648C57.5325 16.7239 57.591 16.783 57.7082 16.9012C57.8254 17.0193 57.9426 17.2557 58.0012 17.5512C58.0597 17.6694 58.0597 17.7876 58.0597 17.8467C58.0597 17.9649 58.1183 18.024 58.1183 18.2012V18.3194V18.3785H58.0012C57.884 18.3785 57.7668 18.3785 57.6496 18.3194C57.4739 18.3194 57.2981 18.2603 57.1223 18.2012C56.8294 18.1422 56.6537 18.024 56.4193 17.9058C56.3021 17.9058 56.1264 17.7285 55.892 17.7876C55.7163 17.7876 55.5991 17.9649 55.5405 18.3194C55.4819 18.674 55.7163 19.265 56.2435 19.7377C56.4779 19.9741 56.8294 20.1514 57.1809 20.2696C57.3567 20.3287 57.4739 20.3878 57.6496 20.4469L57.7668 20.506L58.0012 20.5651C58.1183 20.5651 58.2941 20.6241 58.4699 20.6241C59.0557 20.6832 59.7002 20.4469 60.1103 19.915C60.286 19.6786 60.4032 19.3241 60.4618 18.9695C60.4618 18.7922 60.4618 18.6149 60.4618 18.4376V18.2012V18.024C60.4618 17.8467 60.4032 17.6103 60.3446 17.433C60.286 17.2557 60.2275 17.0784 60.1689 16.8421C59.9931 16.3693 59.7588 15.8965 59.4072 15.542C59.0557 15.1283 58.5284 14.7737 57.9426 14.7146C56.8294 14.5373 55.892 15.2465 55.5991 15.8965C55.3062 16.5466 55.3647 17.0784 55.4233 17.433C55.5405 17.6694 55.7163 17.7876 55.892 17.7876Z" fill="#A8A8A8"/>
<path d="M79.9127 16.1921C79.1511 16.1921 78.8581 17.5513 78.7996 19.3242C78.7996 19.3833 78.7996 19.5015 78.7996 19.5606C78.7996 19.6197 78.7996 19.7378 78.7996 19.7969C78.8581 21.5698 79.1511 22.929 79.9127 22.929C80.6158 22.929 80.9673 21.5698 81.0259 19.7969C81.0259 19.7378 81.0259 19.6197 81.0259 19.5606C81.0259 19.5015 81.0259 19.3833 81.0259 19.3242C80.9673 17.4922 80.6158 16.1921 79.9127 16.1921Z" fill="#A8A8A8"/>
<path d="M160.118 60.0996C160.294 60.0996 160.47 59.9223 160.587 59.6859C160.704 59.5087 160.88 59.2132 161.114 59.0359C161.349 58.8586 161.524 58.9177 161.7 58.9768C161.759 59.0359 161.817 59.095 161.935 59.2132C162.052 59.3314 162.169 59.5677 162.227 59.8632C162.286 59.9814 162.286 60.0996 162.286 60.1587C162.286 60.2769 162.345 60.336 162.345 60.5133V60.6315V60.6906C162.345 60.6906 162.345 60.6906 162.286 60.7497C162.286 60.7497 162.227 60.7497 162.169 60.7497H161.993C161.583 60.7497 161.29 60.6906 161.114 60.5724C160.88 60.5133 160.704 60.3951 160.587 60.2769C160.47 60.1587 160.294 60.0996 160.118 60.0996C159.943 60.0996 159.825 60.2769 159.767 60.5133C159.708 60.8087 159.767 61.2815 160.118 61.6952C160.47 62.1679 161.056 62.5225 161.642 62.6998L161.817 62.7589C161.876 62.7589 161.935 62.818 162.11 62.818C162.345 62.8771 162.638 62.8771 162.872 62.8771C163.399 62.8771 163.926 62.6407 164.278 62.1679C164.454 61.9316 164.571 61.577 164.571 61.2224C164.571 61.0451 164.571 60.8678 164.571 60.6906V60.4542V60.2769C164.571 60.0996 164.512 59.8632 164.454 59.6859C164.395 59.5087 164.337 59.3314 164.278 59.095C164.102 58.6222 163.868 58.1495 163.516 57.7949C163.165 57.3812 162.638 57.0267 162.052 56.9676C160.939 56.7903 160.001 57.4994 159.708 58.1495C159.415 58.7995 159.474 59.3314 159.532 59.6859C159.767 59.9814 159.943 60.0996 160.118 60.0996Z" fill="#A8A8A8"/>
<path d="M167.969 32.7388C167.207 32.7388 166.914 34.098 166.856 35.8708C166.856 35.9299 166.856 36.0481 166.856 36.1072C166.856 36.1663 166.856 36.2845 166.856 36.3436C166.914 38.1164 167.207 39.4756 167.969 39.4756C168.672 39.4756 169.023 38.1164 169.082 36.3436C169.082 36.2845 169.082 36.1663 169.082 36.1072C169.082 36.0481 169.082 35.9299 169.082 35.8708C169.023 34.0389 168.672 32.7388 167.969 32.7388Z" fill="#A8A8A8"/>
<path d="M112.018 24.8198C112.018 24.8198 115.885 25.1153 115.885 31.2612C115.885 37.4071 118.58 93.5474 116.178 100.462C113.776 107.376 114.245 116.358 114.245 116.358C119.283 115.826 119.869 115.826 119.869 115.826L119.986 24.8198H112.018Z" fill="#D3D3D3"/>
<path d="M204 122.622C204 122.445 201.481 121.913 196.852 121.204C192.224 120.436 185.487 119.608 177.05 118.663C168.613 117.836 158.478 116.89 147.112 116.358C135.746 115.708 123.15 115.472 109.792 115.649C107.097 115.708 104.461 115.708 101.824 115.767C99.1879 115.885 96.5514 115.944 93.8564 116.063C80.4986 116.595 67.9024 117.481 56.5951 118.663C45.2878 119.786 35.2108 121.204 26.8329 122.504C18.4549 123.863 11.776 125.045 7.14765 126.05C2.57787 126.995 0.0586233 127.645 0.11721 127.823C0.175797 128 2.69504 127.704 7.32341 126.995C11.9518 126.286 18.6893 125.282 27.0672 124.1C35.4452 123.036 45.5222 121.736 56.8294 120.731C68.1367 119.608 80.6744 118.84 93.9736 118.308C96.6686 118.19 99.305 118.131 101.941 118.013C104.578 117.954 107.214 117.954 109.909 117.895C123.209 117.717 135.805 117.895 147.112 118.426C158.419 118.84 168.555 119.608 176.991 120.258C185.428 121.027 192.165 121.618 196.852 122.149C201.422 122.622 204 122.8 204 122.622Z" fill="#1B1B1B"/>
<path d="M100.184 114.763C100.594 114.763 100.711 109.149 100.711 99.8707C100.711 90.5927 100.477 77.71 100.242 63.1135C100.184 61.6361 100.184 60.2178 100.125 58.7405C100.067 57.3222 100.067 55.8448 100.008 54.3674C99.8908 48.6943 99.7151 43.3166 99.5979 38.2936C99.5393 35.7525 99.4807 33.3887 99.3635 31.0249C99.3049 29.843 99.3049 28.7202 99.2464 27.6564C99.2464 27.1246 99.1878 26.5336 99.1878 26.0018V25.5881V25.529V25.4108C102.117 25.3517 104.812 25.2926 107.156 25.2335C109.792 25.1745 112.077 25.1154 113.952 24.9972C117.701 24.8199 119.752 24.6426 119.752 24.4062C119.752 24.1698 117.643 23.9925 113.952 23.8744C112.077 23.8153 109.792 23.7562 107.156 23.638C105.867 23.638 104.461 23.5789 102.937 23.5789C102.176 23.5789 101.414 23.5789 100.652 23.5198C99.5393 23.5198 98.4261 23.5198 97.313 23.4607C97.3716 27.8928 97.4302 32.9159 97.4887 38.2345C97.5473 43.2576 97.6645 48.6352 97.7817 54.3083C97.8403 55.7857 97.8403 57.204 97.8989 58.6814C97.9574 60.0997 97.9574 61.577 98.016 63.0544C98.3676 77.6509 98.7191 90.5336 99.1292 99.8116C99.4807 109.149 99.8908 114.763 100.184 114.763Z" fill="#1B1B1B"/>
<path d="M119.752 114.763C120.513 114.763 120.806 96.975 120.865 73.8097C120.865 72.6278 120.865 71.505 120.865 70.3231C120.865 69.2003 120.865 68.0184 120.865 66.8365C120.806 43.6712 120.513 25.8835 119.752 25.8835C119.049 25.8835 118.697 43.6712 118.639 66.8365C118.639 68.0184 118.639 69.1412 118.639 70.3231C118.639 71.4459 118.639 72.6278 118.639 73.8097C118.697 96.975 119.107 114.763 119.752 114.763Z" fill="#1B1B1B"/>
<path d="M97.3131 23.6971C97.3717 23.638 97.1959 23.2834 96.7858 22.6334C96.6686 22.5152 96.4928 22.2788 96.3171 22.0424C96.1413 21.806 95.907 21.5106 95.6726 21.2151C95.2039 20.6241 94.5595 19.8559 93.8564 18.9695C93.7978 21.156 93.7978 23.9926 93.7393 27.361C93.7393 30.1385 93.7393 33.3887 93.7393 36.9935C93.7393 44.144 93.7978 52.7719 93.9736 62.2271C93.9736 63.5272 94.0322 64.8273 94.0322 66.1274C94.0322 67.4275 94.0908 68.7276 94.0908 70.0277C94.2665 80.0738 94.4423 89.2336 94.6767 96.6795C94.7938 100.403 94.911 103.712 95.0282 106.489C95.0868 107.849 95.1453 109.149 95.2039 110.212C95.2625 111.394 95.3211 112.458 95.3797 113.344C95.6726 113.522 95.907 113.699 96.1413 113.817C96.3171 113.935 96.4928 114.054 96.6686 114.113C97.0201 114.29 97.2545 114.467 97.4888 114.585C97.9575 114.822 98.1919 114.881 98.2505 114.822C98.309 114.763 98.1333 114.526 97.7232 114.172C97.5474 113.994 97.3131 113.817 97.0201 113.522C96.903 113.403 96.7272 113.285 96.5514 113.108C96.4928 113.049 96.4343 112.99 96.3757 112.931C96.3171 112.872 96.2585 112.812 96.1999 112.812C96.1999 112.694 96.1999 112.517 96.2585 112.399C96.2585 112.162 96.2585 111.926 96.2585 111.69C96.2585 111.217 96.3171 110.685 96.3171 110.153C96.3171 109.03 96.3757 107.789 96.3757 106.43C96.4343 103.653 96.4343 100.343 96.4343 96.6204C96.4343 89.1745 96.3757 80.0147 96.2585 69.9686C96.2585 68.6685 96.1999 67.3684 96.1999 66.0683C96.1999 64.7682 96.1413 63.4681 96.1413 62.168C95.9656 52.7719 95.7898 44.144 95.614 36.9344C95.4969 33.3296 95.3797 30.1385 95.2625 27.361C95.2039 26.0018 95.1453 24.7017 95.0868 23.5198C95.0282 22.8698 94.9696 22.2788 94.911 21.806C95.4969 22.3379 96.0241 22.7516 96.3171 23.047C96.9615 23.5789 97.2545 23.7562 97.3131 23.6971Z" fill="#1B1B1B"/>
<path d="M119.752 23.52C119.869 23.2836 119.576 22.8108 118.815 22.1608C118.463 21.8062 117.994 21.4516 117.467 21.038C117.174 20.8016 116.94 20.6243 116.588 20.3879C116.412 20.2697 116.295 20.1516 116.12 20.0334C116.061 19.9743 115.944 19.9152 115.827 19.8561C115.651 19.7379 115.534 19.6197 115.358 19.5015C114.421 19.4424 113.425 19.4424 112.37 19.3833C111.433 19.3833 110.378 19.3242 109.323 19.3242C109.031 19.3242 108.679 19.3242 108.386 19.3242C108.093 19.3242 107.742 19.3242 107.449 19.3242C101.121 19.3833 96.2 19.6788 96.2 20.447C96.2 21.1562 101.063 21.5107 107.449 21.5698C107.742 21.5698 108.093 21.5698 108.386 21.5698C108.679 21.5698 109.031 21.5698 109.323 21.5698C110.378 21.5698 111.374 21.5698 112.37 21.5107C112.839 21.5107 113.307 21.4516 113.776 21.4516C114.01 21.4516 114.245 21.4516 114.421 21.4516C114.538 21.4516 114.596 21.4516 114.713 21.4516H114.772H114.831L115.065 21.5698C115.241 21.688 115.416 21.7471 115.592 21.8653C115.944 22.0426 116.237 22.2199 116.53 22.3972C117.116 22.6926 117.643 22.9881 118.112 23.1654C119.107 23.5791 119.635 23.7564 119.752 23.52Z" fill="#1B1B1B"/>
<path d="M95.2625 113.226C95.0281 112.517 94.2079 112.399 93.3291 112.576L93.212 112.635L93.0948 112.694C92.216 112.99 91.5715 113.522 91.7473 114.231C91.923 114.94 92.7432 115.058 93.6806 114.881L93.7978 114.822L93.915 114.763C94.8524 114.467 95.4968 113.876 95.2625 113.226Z" fill="#1B1B1B"/>
<path d="M95.7311 114.467C95.4967 113.758 94.7351 113.64 93.8563 113.817L93.7391 113.876L93.622 113.935C92.8017 114.231 92.2159 114.704 92.3916 115.472C92.5674 116.181 93.329 116.299 94.2664 116.122L94.3836 116.063L94.5008 116.004C95.321 115.649 95.9069 115.117 95.7311 114.467Z" fill="#1B1B1B"/>
<path d="M98.0747 114.704C97.7818 113.994 96.8444 114.054 95.6727 114.29L95.4969 114.349L95.3211 114.408C94.1494 114.704 93.2706 115.117 93.3292 115.885C93.3878 116.595 94.4423 116.89 95.7898 116.654L95.9656 116.595L96.1414 116.536C97.4889 116.122 98.3677 115.354 98.0747 114.704Z" fill="#1B1B1B"/>
<path d="M101.004 115.058C100.77 114.349 99.7736 114.349 98.6605 114.526L98.4847 114.585L98.3089 114.644C97.1958 114.94 96.317 115.294 96.3756 116.063C96.4342 116.772 97.4301 117.067 98.7776 116.831L98.9534 116.772L99.1292 116.713C100.418 116.417 101.238 115.708 101.004 115.058Z" fill="#1B1B1B"/>
<path d="M94.8523 113.64C94.6179 112.872 93.622 112.872 92.3916 113.108L92.2159 113.167L92.0401 113.226C90.8098 113.522 89.931 113.994 89.9896 114.763C90.1068 115.472 91.1613 115.708 92.5088 115.472L92.6846 115.413L92.8603 115.354C94.1493 114.999 95.0281 114.349 94.8523 113.64Z" fill="#1B1B1B"/>
<path d="M96.4342 114.408C96.4927 113.64 94.7937 113.167 92.5674 113.226C92.4502 113.226 92.3331 113.226 92.2159 113.226C92.0987 113.226 91.9815 113.226 91.8644 113.226C89.6381 113.403 87.9976 114.053 88.1148 114.822C88.232 115.531 89.8724 115.59 91.9815 115.531C92.0987 115.531 92.2159 115.531 92.2745 115.531C92.3916 115.531 92.5088 115.531 92.5674 115.531C94.7351 115.354 96.3756 115.117 96.4342 114.408Z" fill="#1B1B1B"/>
<path d="M96.7273 115.117C96.7859 114.349 95.4384 113.935 93.6222 113.876C93.505 113.876 93.4464 113.876 93.3292 113.876C93.212 113.876 93.1535 113.876 93.0363 113.876C91.2201 113.994 89.8726 114.467 89.9898 115.235C90.0483 115.945 91.3958 116.122 93.0949 116.181C93.1535 116.181 93.2706 116.181 93.3292 116.181C93.3878 116.181 93.505 116.181 93.5636 116.181C95.3798 116.063 96.6687 115.826 96.7273 115.117Z" fill="#1B1B1B"/>
<path d="M98.8949 115.708C98.9534 114.94 97.3716 114.467 95.321 114.408C95.2039 114.408 95.0867 114.408 95.0281 114.408C94.9109 114.408 94.8524 114.408 94.7352 114.408C92.6846 114.408 91.1028 114.822 91.1028 115.59C91.1614 116.299 92.6846 116.595 94.6766 116.654C94.7938 116.654 94.8524 116.654 94.9695 116.654C95.0867 116.654 95.1453 116.654 95.2625 116.654C97.2544 116.654 98.8363 116.417 98.8949 115.708Z" fill="#1B1B1B"/>
<path d="M127.075 111.631C126.665 110.981 125.083 111.631 123.267 112.754C123.15 112.813 123.091 112.872 122.974 112.931C122.857 112.99 122.799 113.049 122.681 113.108C120.865 114.349 119.635 115.472 120.104 116.122C120.455 116.713 122.095 116.122 123.912 114.999C124.029 114.94 124.087 114.881 124.205 114.822C124.322 114.763 124.38 114.704 124.498 114.645C126.255 113.463 127.485 112.222 127.075 111.631Z" fill="#1B1B1B"/>
<path d="M120.689 108.735C119.928 108.735 119.635 110.035 119.576 111.749C119.576 111.808 119.576 111.926 119.576 111.985C119.576 112.044 119.576 112.163 119.576 112.222C119.635 113.935 119.928 115.236 120.689 115.236C121.392 115.236 121.744 113.935 121.802 112.222C121.802 112.163 121.802 112.044 121.802 111.985C121.802 111.926 121.802 111.808 121.802 111.749C121.744 110.035 121.392 108.735 120.689 108.735Z" fill="#1B1B1B"/>
<path d="M123.033 110.212C122.33 109.858 121.568 110.685 121.099 111.985L121.041 112.163L120.982 112.34C120.631 113.699 120.748 114.763 121.51 114.881C122.213 114.999 122.681 114.113 123.15 112.99L123.209 112.813L123.267 112.635C123.56 111.513 123.677 110.508 123.033 110.212Z" fill="#1B1B1B"/>
<path d="M129.477 115.531C129.477 114.763 128.13 114.467 126.372 114.408C126.255 114.408 126.196 114.408 126.138 114.408C126.079 114.408 125.962 114.408 125.903 114.408C124.146 114.467 122.798 114.763 122.798 115.531C122.798 116.24 124.146 116.595 125.903 116.654C126.021 116.654 126.079 116.654 126.138 116.654C126.196 116.654 126.314 116.654 126.372 116.654C128.13 116.595 129.477 116.24 129.477 115.531Z" fill="#1B1B1B"/>
<path d="M125.552 109.562C124.908 109.149 124.029 110.094 122.974 111.335L122.857 111.513L122.681 111.69C121.744 112.99 121.041 114.054 121.568 114.645C122.037 115.176 123.267 114.467 124.439 113.108L124.615 112.872L124.79 112.635C125.845 111.276 126.196 109.917 125.552 109.562Z" fill="#1B1B1B"/>
<path d="M127.134 114.94C127.134 114.172 126.255 113.876 125.083 113.817C125.025 113.817 124.966 113.817 124.908 113.817C124.849 113.817 124.791 113.817 124.732 113.817C123.56 113.876 122.681 114.172 122.681 114.94C122.681 115.649 123.56 116.004 124.732 116.063C124.791 116.063 124.849 116.063 124.908 116.063C124.966 116.063 125.025 116.063 125.083 116.063C126.255 116.004 127.134 115.649 127.134 114.94Z" fill="#1B1B1B"/>
<path d="M82.3733 42.0757L141.078 30.0203L160.997 38.7072L146.292 55.0175H78.5652L82.0218 41.012" fill="white"/>
<path d="M82.0218 41.0121C81.9632 41.0121 81.846 41.3075 81.6702 41.8985C81.4945 42.4894 81.2015 43.435 80.9086 44.6169C80.6157 45.7988 80.2056 47.2762 79.7369 48.9899C79.2682 50.8219 78.6823 52.9493 78.0964 55.3131C85.4784 55.3722 95.3796 55.4313 107.038 55.4904C118.639 55.4904 132.055 55.5495 146.467 55.5495C147.288 54.663 148.108 53.7175 148.987 52.772C150.627 50.9401 152.209 49.1672 153.849 47.3943C155.431 45.6215 157.072 43.8486 158.712 42.0167C159.767 40.8348 160.821 39.6529 161.876 38.5301C154.611 35.398 147.639 32.3251 141.077 29.4885C132.407 31.3205 124.38 32.9751 117.174 34.4525C110.085 35.9299 103.816 37.2891 98.6605 38.3528C93.5048 39.4756 89.4037 40.362 86.5916 41.0121C85.1855 41.3075 84.1309 41.603 83.4278 41.7803C82.7248 41.9576 82.3147 42.0758 82.3733 42.1349C82.3733 42.194 82.7834 42.1349 83.4864 42.0167C84.1895 41.8985 85.3026 41.7212 86.7087 41.4257C89.5209 40.8939 93.622 40.1256 98.8362 39.121C103.992 38.1164 110.261 36.8163 117.408 35.398C124.497 33.9798 132.407 32.3842 141.019 30.6113C147.053 33.2706 153.439 36.0481 160.06 38.9437C159.357 39.712 158.654 40.4802 157.951 41.2485C156.31 43.0804 154.728 44.8533 153.088 46.6261C151.447 48.399 149.866 50.1718 148.225 52.0038C147.463 52.8311 146.76 53.6584 146.057 54.4267C131.762 54.4267 118.521 54.4858 107.097 54.4858C101.355 54.4858 96.0241 54.5449 91.2199 54.5449C86.5915 54.6039 82.4905 54.6039 78.9752 54.663C79.4439 52.5947 79.9126 50.7628 80.2642 49.1081C80.6743 47.3943 81.0258 45.917 81.2601 44.676C81.5531 43.4941 81.7288 42.5485 81.846 41.9576C82.0218 41.3666 82.0804 41.0121 82.0218 41.0121Z" fill="#1B1B1B"/>
<path d="M160.411 37.5254C160.353 37.5845 160.47 37.7618 160.704 38.0572C160.938 38.2936 161.231 38.6482 161.583 39.0619C161.466 39.18 161.349 39.2982 161.231 39.4164C161.173 39.4755 161.114 39.5346 161.056 39.5937C160.938 39.7119 160.88 39.8301 160.763 39.8892C160.353 40.3029 159.884 40.8347 159.357 41.3666C158.361 42.4303 157.189 43.7304 155.9 45.1486C154.611 46.5669 153.205 48.1625 151.623 49.9354C150.158 51.59 148.635 53.3629 146.936 55.2539C144.3 55.1948 141.488 55.1357 138.558 55.0766C135.453 55.0175 132.231 54.9584 128.833 54.8993C127.602 54.8993 126.372 54.8402 125.142 54.8402C123.911 54.8402 122.681 54.7811 121.451 54.7811C109.148 54.663 98.2503 54.6039 90.4583 54.663C82.6662 54.7221 77.9207 54.9584 77.9207 55.313C77.9207 55.6676 82.6662 56.0221 90.4583 56.2585C98.2503 56.554 109.148 56.7904 121.451 56.9677C122.681 56.9677 123.911 56.9677 125.142 57.0268C126.372 57.0268 127.602 57.0859 128.833 57.0859C132.172 57.0859 135.453 57.145 138.558 57.145C141.839 57.145 144.944 57.145 147.874 57.2041C149.69 55.0175 151.447 52.9492 153.029 51.0582C154.494 49.2262 155.9 47.5715 157.13 46.0942C158.361 44.6168 159.415 43.2576 160.353 42.0757C161.349 40.7756 162.169 39.7119 162.813 38.8846C162.403 38.53 161.993 38.2936 161.7 38.0572C161.524 37.939 161.466 37.88 161.349 37.8209C161.231 37.7618 161.173 37.7027 161.056 37.6436C160.646 37.5254 160.47 37.4663 160.411 37.5254Z" fill="#1B1B1B"/>
<path d="M141.664 75.1692L82.9594 63.1138L63.0398 71.8007L77.7451 88.111H145.472L142.015 74.1055" fill="white"/>
<path d="M142.015 74.1053C141.956 74.1053 142.015 74.4599 142.132 75.0509C142.249 75.7009 142.425 76.5873 142.718 77.7692C143.011 78.9511 143.304 80.4285 143.714 82.2014C144.066 83.7969 144.534 85.6289 145.003 87.6972C141.488 87.6972 137.387 87.6381 132.758 87.579C127.954 87.579 122.681 87.5199 116.881 87.5199C105.457 87.5199 92.216 87.4608 77.9208 87.4608C77.2177 86.6926 76.4561 85.8653 75.7531 85.0379C74.1126 83.206 72.5308 81.4331 70.8903 79.6603C69.3085 77.8874 67.6681 76.1146 66.0276 74.2826C65.3246 73.5144 64.6215 72.7462 63.9185 71.9779C70.5388 69.0823 76.9248 66.3048 82.9593 63.6455C91.513 65.3593 99.4808 67.0139 106.57 68.4322C113.717 69.8505 119.986 71.0915 125.142 72.1552C130.298 73.1598 134.457 73.9872 137.269 74.4599C138.676 74.6963 139.789 74.9327 140.492 75.0509C141.253 75.1691 141.605 75.2281 141.605 75.1691C141.605 75.11 141.253 75.0509 140.492 74.8145C139.789 74.6372 138.676 74.4008 137.328 74.0463C134.516 73.3962 130.473 72.5098 125.259 71.387C120.103 70.2642 113.835 68.9641 106.746 67.4867C99.598 66.0093 91.5716 64.2956 82.8421 62.5227C76.2803 65.3593 69.3085 68.4322 62.0437 71.5643C63.0983 72.7462 64.1528 73.869 65.2074 75.0509C66.8478 76.8828 68.4297 78.6557 70.0701 80.4285C71.652 82.2014 73.2924 83.9742 74.9328 85.8062C75.8116 86.7517 76.6319 87.6972 77.4521 88.5836C91.9231 88.5836 105.281 88.5246 116.881 88.5246C128.599 88.4655 138.441 88.4064 145.823 88.3473C145.237 85.9835 144.651 83.856 144.183 82.0241C143.714 80.3103 143.362 78.8329 143.011 77.651C142.718 76.4691 142.425 75.5827 142.249 74.9327C142.132 74.4599 142.015 74.1053 142.015 74.1053Z" fill="#1B1B1B"/>
<path d="M63.6255 70.6187C63.5669 70.5596 63.3911 70.6187 63.0396 70.8551C62.981 70.9142 62.8638 70.9733 62.7467 71.0324C62.6295 71.0915 62.5709 71.1506 62.3951 71.2688C62.1022 71.5052 61.6921 71.7415 61.282 72.0961C61.9264 72.9234 62.7467 74.0462 63.7426 75.2872C64.6214 76.4691 65.7346 77.7692 66.9649 79.3057C68.1953 80.7831 69.5428 82.4377 71.066 84.2697C72.6479 86.1607 74.4055 88.2291 76.2217 90.4156C79.151 90.4156 82.2561 90.3565 85.537 90.3565C88.6421 90.3565 91.923 90.2974 95.2625 90.2974C96.4928 90.2974 97.7231 90.2383 98.9534 90.2383C100.184 90.2383 101.414 90.2383 102.644 90.1792C114.948 90.0019 125.786 89.7655 133.637 89.4701C141.429 89.1746 146.175 88.8791 146.175 88.4654C146.175 88.1109 141.429 87.9336 133.637 87.8154C125.845 87.7563 114.948 87.7563 102.644 87.8745C101.414 87.8745 100.184 87.9336 98.9534 87.9336C97.7231 87.9336 96.4928 87.9336 95.2625 87.9927C91.923 88.0518 88.6421 88.1109 85.537 88.17C82.6077 88.2291 79.7955 88.2882 77.1591 88.3473C75.5186 86.4562 73.9368 84.6834 72.4721 83.0287C70.8903 81.3149 69.4842 79.6603 68.1953 78.242C66.9063 76.8237 65.7346 75.5236 64.7386 74.4599C64.2113 73.9281 63.8012 73.4553 63.3325 72.9825C63.2154 72.8643 63.0982 72.7461 63.0396 72.6871C62.981 72.628 62.9224 72.5689 62.8638 72.5098C62.7467 72.3916 62.6295 72.2734 62.5123 72.1552C62.9224 71.7415 63.2154 71.387 63.4497 71.1506C63.5669 70.8551 63.6841 70.6778 63.6255 70.6187Z" fill="#1B1B1B"/>
<path d="M134.281 48.0442C134.281 48.1624 134.34 48.2806 134.399 48.3397C134.574 48.6352 134.867 48.8125 135.16 48.8716C135.395 48.9307 135.805 49.0488 135.98 48.8125C136.098 48.6352 136.039 48.3397 136.039 48.1624C135.98 47.6306 135.688 46.9214 135.043 46.9805C134.457 46.9805 134.223 47.5715 134.281 48.0442Z" fill="white"/>
<path d="M134.281 48.0442C134.281 48.0442 134.281 47.9851 134.34 47.8078C134.34 47.6896 134.457 47.5123 134.692 47.3941C134.809 47.335 134.926 47.335 134.985 47.3941C135.043 47.4532 135.102 47.4532 135.16 47.5123C135.16 47.5714 135.219 47.5714 135.277 47.6305C135.336 47.6896 135.453 47.8078 135.512 47.926C135.512 47.9851 135.57 48.0442 135.57 48.1033C135.57 48.1624 135.629 48.2214 135.629 48.2805C135.629 48.3987 135.688 48.4578 135.688 48.5169C135.688 48.576 135.688 48.6351 135.746 48.6351C135.863 48.6942 135.805 48.6942 135.805 48.6351C135.746 48.576 135.805 48.6351 135.746 48.6351C135.746 48.6351 135.688 48.6942 135.57 48.6942C135.453 48.6942 135.277 48.6942 135.16 48.6942C135.043 48.6942 134.926 48.6942 134.809 48.6351C134.574 48.576 134.457 48.3987 134.399 48.2805C134.281 48.1033 134.281 48.0442 134.281 48.0442C134.281 48.0442 134.281 48.1033 134.281 48.2805C134.34 48.3987 134.399 48.6351 134.633 48.8124C134.75 48.9306 134.867 48.9897 134.985 49.0488C135.16 49.1079 135.277 49.167 135.453 49.2261C135.57 49.2261 135.688 49.2852 135.805 49.2261C135.922 49.2261 136.156 49.1079 136.273 48.9306C136.449 48.576 136.391 48.3987 136.391 48.1624C136.391 48.1033 136.391 47.9851 136.391 47.8669C136.391 47.7487 136.391 47.6896 136.332 47.5714C136.273 47.335 136.215 47.0986 136.039 46.8623C135.863 46.6259 135.629 46.4486 135.277 46.3895C134.985 46.3304 134.75 46.4486 134.516 46.5668C134.34 46.685 134.223 46.9214 134.164 47.0395C134.106 47.335 134.106 47.5714 134.164 47.7487C134.223 47.9851 134.281 48.0442 134.281 48.0442Z" fill="#1B1B1B"/>
<path d="M133.93 38.3526C134.281 36.9343 135.805 35.9297 137.211 36.107C138.675 36.3433 139.789 37.7616 139.73 39.239C139.671 40.7164 138.324 42.0165 136.918 42.0165C136.566 42.0165 136.215 41.9574 135.863 42.0756C135.102 42.2528 134.692 43.0802 134.692 43.8484C134.692 44.6166 134.984 45.3258 135.277 46.0349" fill="white"/>
<path d="M135.336 46.035C135.336 46.035 135.336 45.9759 135.277 45.8577C135.219 45.7396 135.219 45.5623 135.16 45.385C135.102 45.2077 135.043 44.9122 134.985 44.6168C134.926 44.3213 134.926 43.9667 135.043 43.6712C135.102 43.3758 135.277 43.0212 135.57 42.7848C135.688 42.6666 135.863 42.6075 135.98 42.5484C136.098 42.4893 136.332 42.4893 136.566 42.5484C136.801 42.5484 137.152 42.6075 137.445 42.4893C137.797 42.4302 138.09 42.312 138.383 42.1348C138.968 41.8393 139.437 41.3074 139.789 40.7165C139.906 40.4801 140.023 40.1846 140.082 39.9482C140.14 39.6528 140.199 39.4164 140.199 39.1209C140.199 38.4118 139.906 37.7617 139.554 37.2299C139.203 36.698 138.675 36.3434 138.207 36.1071C137.68 35.8707 137.152 35.8116 136.625 35.8707C136.156 35.9298 135.746 36.1071 135.395 36.3434C134.692 36.7571 134.34 37.3481 134.164 37.7026C133.989 38.1163 133.989 38.3527 133.989 38.3527C133.989 38.3527 134.047 38.1163 134.281 37.7617C134.516 37.4072 134.926 36.9344 135.57 36.5798C135.922 36.4025 136.273 36.2843 136.742 36.2843C137.152 36.2843 137.621 36.4025 138.031 36.6389C138.441 36.8753 138.793 37.2299 139.027 37.6435C139.261 38.0572 139.437 38.5891 139.379 39.1209C139.379 39.2982 139.32 39.5346 139.261 39.7119C139.203 39.8891 139.086 40.0664 138.968 40.2437C138.675 40.6574 138.265 41.012 137.855 41.1892C137.621 41.3074 137.445 41.3665 137.211 41.4256C136.976 41.4847 136.801 41.4847 136.508 41.4847C136.215 41.4847 135.922 41.4847 135.57 41.662C135.277 41.7802 135.043 42.0166 134.809 42.2529C134.457 42.7257 134.34 43.1985 134.34 43.6712C134.34 44.144 134.457 44.4986 134.574 44.794C134.692 45.0895 134.809 45.3259 134.926 45.5032C135.219 45.8578 135.336 46.035 135.336 46.035Z" fill="#1B1B1B"/>
<path d="M87.822 82.2012C87.822 82.3194 87.8806 82.4376 87.9391 82.4967C88.1149 82.7922 88.4078 82.9694 88.7008 83.0285C88.9351 83.0876 89.3452 83.2058 89.521 82.9694C89.6382 82.7922 89.5796 82.4967 89.5796 82.3194C89.521 81.7875 89.2281 81.0784 88.5836 81.1375C87.9977 81.1375 87.7634 81.7285 87.822 82.2012Z" fill="white"/>
<path d="M87.822 82.2011C87.822 82.2011 87.822 82.142 87.8806 81.9648C87.8806 81.8466 87.9978 81.6693 88.2321 81.5511C88.3493 81.492 88.4665 81.492 88.5251 81.5511C88.5836 81.6102 88.6422 81.6102 88.7008 81.6693C88.7008 81.7284 88.7594 81.7284 88.818 81.7875C88.8766 81.8466 88.9937 81.9648 89.0523 82.0829C89.0523 82.142 89.1109 82.2011 89.1109 82.2602C89.1109 82.3193 89.1695 82.3784 89.1695 82.4375C89.1695 82.5557 89.2281 82.6148 89.2281 82.6739C89.2281 82.733 89.2281 82.7921 89.2867 82.7921C89.4039 82.8512 89.3453 82.8512 89.3453 82.7921C89.2867 82.733 89.3453 82.7921 89.2867 82.7921C89.2867 82.7921 89.2281 82.8512 89.1109 82.8512C88.9937 82.8512 88.818 82.8512 88.7008 82.8512C88.5836 82.8512 88.4665 82.8512 88.3493 82.7921C88.1149 82.733 87.9978 82.5557 87.9392 82.4375C87.822 82.2602 87.822 82.2011 87.822 82.2011C87.822 82.2011 87.822 82.2602 87.822 82.4375C87.8806 82.5557 87.9392 82.7921 88.1735 82.9694C88.2907 83.0876 88.4079 83.1467 88.5251 83.2058C88.7008 83.2649 88.818 83.324 88.9937 83.383C89.1109 83.383 89.2281 83.4421 89.3453 83.383C89.4624 83.383 89.6968 83.2649 89.814 83.0876C89.9897 82.733 89.9311 82.5557 89.9311 82.3193C89.9311 82.2602 89.9311 82.142 89.9311 82.0239C89.9311 81.9057 89.9311 81.8466 89.8725 81.7284C89.814 81.492 89.7554 81.2556 89.5796 81.0192C89.4039 80.7829 89.1695 80.6056 88.818 80.5465C88.5251 80.4874 88.2907 80.6056 88.0564 80.7238C87.8806 80.842 87.7634 81.0783 87.7048 81.1965C87.6462 81.492 87.6462 81.7284 87.7048 81.9057C87.822 82.083 87.822 82.2011 87.822 82.2011Z" fill="#1B1B1B"/>
<path d="M87.5291 72.5095C87.8806 71.0913 89.4038 70.0866 90.8099 70.2639C92.2746 70.5003 93.3878 71.9186 93.3292 73.396C93.2706 74.8733 91.9231 76.1734 90.517 76.1734C90.1655 76.1734 89.8139 76.1143 89.4624 76.2325C88.7008 76.4098 88.2907 77.2372 88.2907 78.0054C88.2907 78.7736 88.5836 79.4828 88.8766 80.1919" fill="white"/>
<path d="M88.8766 80.192C88.8766 80.192 88.8766 80.1329 88.818 80.0147C88.7594 79.8965 88.7594 79.7193 88.7008 79.542C88.6422 79.3647 88.5836 79.0692 88.525 78.7737C88.4665 78.4783 88.4664 78.1237 88.5836 77.8282C88.6422 77.5327 88.818 77.1782 89.1109 76.9418C89.2281 76.8236 89.4038 76.7645 89.521 76.7054C89.6382 76.6463 89.8725 76.6463 90.1069 76.7054C90.3412 76.7054 90.6928 76.7645 90.9857 76.6463C91.3372 76.5872 91.6301 76.469 91.9231 76.2917C92.5089 75.9963 92.9777 75.4644 93.3292 74.8735C93.4463 74.6371 93.5635 74.3416 93.6221 74.1052C93.6807 73.8097 93.7393 73.5734 93.7393 73.2779C93.7393 72.5688 93.4463 71.9187 93.0948 71.3869C92.7433 70.855 92.216 70.5004 91.7473 70.264C91.22 70.0277 90.6928 69.9686 90.1655 70.0277C89.6968 70.0868 89.2867 70.264 88.9351 70.5004C88.2321 70.9141 87.8806 71.505 87.7048 71.8596C87.5291 72.2733 87.5291 72.5097 87.5291 72.5097C87.5291 72.5097 87.5876 72.2733 87.822 71.9187C88.0563 71.5641 88.4665 71.0914 89.1109 70.7368C89.4624 70.5595 89.814 70.4413 90.2826 70.4413C90.6928 70.4413 91.1615 70.5595 91.5716 70.7959C91.9817 71.0323 92.3332 71.3868 92.5675 71.8005C92.8019 72.2142 92.9777 72.746 92.9191 73.2779C92.9191 73.4552 92.8605 73.6916 92.8019 73.8688C92.7433 74.0461 92.6261 74.2234 92.5089 74.4007C92.216 74.8144 91.8059 75.1689 91.3958 75.3462C91.1615 75.4644 90.9857 75.5235 90.7513 75.5826C90.517 75.6417 90.3412 75.6417 90.0483 75.6417C89.7554 75.6417 89.4624 75.6417 89.1109 75.819C88.818 75.9372 88.5836 76.1736 88.4079 76.4099C88.0563 76.8827 87.9392 77.3555 87.9392 77.8282C87.9392 78.301 88.0563 78.6556 88.1735 78.951C88.2907 79.2465 88.4079 79.4829 88.525 79.6602C88.7594 80.0147 88.8766 80.192 88.8766 80.192Z" fill="#1B1B1B"/>
<path d="M174.296 110.153C173.71 109.681 172.187 110.981 170.898 113.285C170.84 113.404 170.781 113.522 170.722 113.64C170.664 113.758 170.605 113.876 170.547 113.995C169.434 116.358 169.199 118.427 169.902 118.604C170.605 118.781 171.426 117.127 172.539 114.999C172.597 114.881 172.656 114.763 172.714 114.704C172.773 114.585 172.832 114.467 172.89 114.408C173.945 112.222 174.882 110.567 174.296 110.153Z" fill="#1B1B1B"/>
<path d="M165.567 103.83C165.332 104.126 165.684 104.776 166.27 105.839C166.856 106.903 167.559 108.38 168.086 110.153C168.145 110.331 168.203 110.508 168.262 110.685C168.32 110.862 168.379 111.04 168.379 111.217C168.848 113.049 169.082 114.763 169.375 116.004C169.668 117.245 169.961 118.013 170.371 117.954C170.722 117.954 170.957 117.127 171.015 115.826C171.074 114.526 171.015 112.694 170.547 110.626C170.488 110.449 170.43 110.212 170.371 110.035C170.312 109.858 170.254 109.621 170.195 109.444C169.551 107.435 168.496 105.78 167.559 104.776C166.563 103.83 165.801 103.535 165.567 103.83Z" fill="#1B1B1B"/>
<path d="M175.117 115.944C175.117 115.59 174.765 115.294 174.296 115.176C173.769 115.058 173.066 115.176 172.363 115.413L172.129 115.531L171.894 115.649C171.191 116.004 170.664 116.476 170.371 116.949C170.078 117.422 170.078 117.776 170.371 118.072C170.898 118.604 171.777 118.19 172.89 117.717L173.066 117.658L173.242 117.599C174.238 117.008 175.175 116.654 175.117 115.944Z" fill="#1B1B1B"/>
<path d="M165.098 115.117C165.157 115.531 165.508 115.708 165.918 115.886C166.328 116.063 166.856 116.24 167.442 116.595L167.617 116.654L167.793 116.772C168.379 117.068 168.789 117.481 169.141 117.718C169.492 117.954 169.844 118.131 170.254 118.013C170.547 117.895 170.722 117.481 170.547 116.831C170.371 116.181 169.844 115.413 169.023 114.881C168.965 114.822 168.848 114.763 168.789 114.704C168.672 114.645 168.613 114.586 168.496 114.586C167.559 114.172 166.621 114.113 166.036 114.29C165.332 114.408 165.04 114.763 165.098 115.117Z" fill="#1B1B1B"/>
<path d="M164.336 110.508C164.044 111.217 164.512 111.749 165.215 112.103C165.274 112.103 165.274 112.163 165.332 112.163C165.391 112.163 165.391 112.222 165.45 112.222C166.211 112.517 166.914 112.458 167.207 111.749C167.5 111.099 167.031 110.508 166.328 110.153C166.27 110.153 166.27 110.094 166.211 110.094C166.153 110.094 166.153 110.035 166.094 110.035C165.332 109.74 164.629 109.858 164.336 110.508Z" fill="#1B1B1B"/>
<path d="M54.6617 107.139C54.0758 106.666 51.9081 108.735 50.0333 112.162C49.9161 112.34 49.8576 112.517 49.7404 112.694C49.6818 112.871 49.5646 113.049 49.4474 113.226C47.7484 116.713 47.2797 119.726 47.9828 119.904C48.6858 120.081 49.7404 117.481 51.4394 114.231C51.498 114.053 51.6152 113.876 51.6738 113.758C51.7323 113.581 51.8495 113.462 51.9081 113.285C53.6657 109.976 55.2476 107.612 54.6617 107.139Z" fill="#1B1B1B"/>
<path d="M41.4208 97.5659C41.1279 97.8614 41.8895 98.8069 42.8269 100.343C43.7643 101.88 44.936 104.185 45.7562 106.962C45.8148 107.258 45.932 107.494 45.9906 107.789C46.0492 108.085 46.1078 108.321 46.2249 108.617C46.928 111.453 47.2795 114.053 47.631 115.944C47.9825 117.836 48.3341 118.958 48.6856 118.958C49.0371 118.958 49.2129 117.776 49.2129 115.826C49.2129 113.876 49.0957 111.158 48.3926 108.085C48.3341 107.789 48.2169 107.494 48.1583 107.198C48.0997 106.903 47.9825 106.607 47.924 106.312C46.9866 103.298 45.5219 100.816 44.1744 99.3979C42.7683 97.8614 41.6551 97.3295 41.4208 97.5659Z" fill="#1B1B1B"/>
<path d="M55.8918 115.886C55.8918 115.531 55.4231 115.235 54.7201 115.176C54.017 115.117 52.9624 115.235 51.9079 115.649C51.7907 115.708 51.6735 115.767 51.6149 115.767C51.4978 115.826 51.3806 115.886 51.322 115.886C50.2674 116.417 49.5058 117.067 49.0371 117.599C48.5684 118.19 48.4512 118.663 48.7442 118.958C49.2715 119.49 50.5604 118.663 52.2594 117.895C52.318 117.836 52.4352 117.836 52.4937 117.777C52.5523 117.717 52.6695 117.717 52.7281 117.658C54.4271 117.008 55.8918 116.595 55.8918 115.886Z" fill="#1B1B1B"/>
<path d="M40.7765 114.644C40.835 115.058 41.3037 115.235 42.0068 115.413C42.7098 115.59 43.5886 115.885 44.526 116.358C44.6432 116.417 44.7018 116.476 44.819 116.476C44.9361 116.535 44.9947 116.595 45.1119 116.654C46.0493 117.185 46.6937 117.836 47.221 118.367C47.7483 118.84 48.1584 119.195 48.5099 119.017C48.8029 118.899 48.9201 118.308 48.6271 117.422C48.3342 116.595 47.514 115.472 46.3422 114.703C46.2251 114.644 46.1079 114.526 45.9907 114.467C45.8735 114.408 45.7564 114.349 45.6392 114.29C44.3503 113.64 43.0614 113.522 42.124 113.699C41.128 113.935 40.7179 114.29 40.7765 114.644Z" fill="#1B1B1B"/>
<path d="M39.6048 107.671C39.3119 108.381 40.0735 109.031 41.1867 109.562C41.2452 109.562 41.3038 109.622 41.3624 109.622C41.421 109.622 41.4796 109.681 41.5382 109.681C42.7099 110.153 43.7059 110.212 43.9988 109.503C44.2918 108.853 43.5301 108.144 42.417 107.612C42.3584 107.612 42.2998 107.553 42.2412 107.553C42.1826 107.553 42.124 107.494 42.0655 107.494C40.8937 107.08 39.8977 107.021 39.6048 107.671Z" fill="#1B1B1B"/>
</g>
<defs>
<clipPath id="clip0_21_23">
<rect width="204" height="128" fill="white"/>
</clipPath>
</defs>
</svg>
